<svg width="158" height="79" viewBox="0 0 158 79" fill="none" xmlns="http://www.w3.org/2000/svg">
    <path d="M26.7414 56L14 78H143.5L130.534 56H26.7414Z" fill="white" stroke="#0060EF" stroke-linejoin="round"/>
    <path d="M33.414 61.931L25.0001 78H133.854L124.604 61.931H33.414Z" fill="#D8E6FD" stroke="#0060EF" stroke-linejoin="round"/>
    <circle cx="77.8966" cy="70.0862" r="3.2069" stroke="#0060EF"/>
    <path d="M26.5376 56L22.2931 61.931H133.5L130.104 56H26.5376Z" fill="#0060EF" fill-opacity="0.08"/>
    <path d="M33.5 62L25 78H35V74V62H33.5Z" fill="#0060EF" fill-opacity="0.08"/>
    <path d="M123.121 77.5L123.121 61.931H124.604L133.328 77.5H123.121Z" fill="#0060EF" fill-opacity="0.08"/>
    <path d="M41 22.443C41 17.5424 47.83 12.8426 50.7498 9.37744C53.6696 5.91224 57.6297 3.96552 61.7589 3.96552C65.8881 3.96551 69.8482 5.91224 72.768 9.37743C75.6878 12.8426 77.3276 18.2268 77.3276 23.1273V58.8276H71.5618V23.1273C71.5618 20.0416 70.5294 16.398 68.691 14.2161C66.8525 12.0341 64.3589 10.8084 61.7589 10.8084C59.1589 10.8084 56.6653 12.0341 54.8268 14.2161C52.9883 16.398 51.9555 19.3573 51.9555 22.443H41Z" fill="#D8E6FD"/>
    <path d="M41.7413 21.0172C41.7413 15.7083 43.8503 10.6169 47.6042 6.86291C51.3582 3.10895 56.4497 1 61.7586 1C67.0675 0.999999 72.1589 3.10895 75.9129 6.86291C79.6669 10.6169 81.7751 16.4497 81.7751 21.7586V58.8276H74.362V21.7586C74.362 18.4158 73.0348 14.4685 70.6711 12.1048C68.3073 9.74102 65.1014 8.41308 61.7586 8.41308C58.4157 8.41308 55.2098 9.74102 52.8461 12.1048C50.4823 14.4685 49.1544 17.6744 49.1544 21.0172H41.7413Z" fill="white" stroke="#0060EF"/>
    <path d="M81.7759 44H85.2242C85.7764 44 86.2242 44.4477 86.2242 45V54.8621C86.2242 55.4144 85.7764 55.8621 85.2242 55.8621H81.7759V44Z" stroke="#0060EF"/>
    <path d="M0 78H158" stroke="#0060EF"/>
</svg>
